<svg width="20" height="20" viewBox="0 0 20 20" fill="none" xmlns="http://www.w3.org/2000/svg">
<g clip-path="url(#clip0_938_3685)">
<path d="M10 11.4285C11.9725 11.4285 13.5714 9.82952 13.5714 7.85707C13.5714 5.88463 11.9725 4.28564 10 4.28564C8.02757 4.28564 6.42859 5.88463 6.42859 7.85707C6.42859 9.82952 8.02757 11.4285 10 11.4285Z" stroke="black" stroke-width="1.5" stroke-linecap="round" stroke-linejoin="round"/>
<path d="M3.90002 16.9999C4.53751 15.9535 5.43347 15.0886 6.50175 14.4886C7.57004 13.8884 8.77472 13.5732 10 13.5732C11.2253 13.5732 12.43 13.8884 13.4983 14.4886C14.5666 15.0886 15.4625 15.9535 16.1001 16.9999" stroke="black" stroke-width="1.5" stroke-linecap="round" stroke-linejoin="round"/>
<path d="M10.0001 19.2857C15.1285 19.2857 19.2858 15.1284 19.2858 9.99995C19.2858 4.87159 15.1285 0.714233 10.0001 0.714233C4.87171 0.714233 0.714355 4.87159 0.714355 9.99995C0.714355 15.1284 4.87171 19.2857 10.0001 19.2857Z" stroke="black" stroke-width="1.5" stroke-linecap="round" stroke-linejoin="round"/>
</g>
<defs>
<clipPath id="clip0_938_3685">
<rect width="20" height="20" fill="white"/>
</clipPath>
</defs>
</svg>
