<svg width="102" height="102" viewBox="0 0 102 102" fill="none" xmlns="http://www.w3.org/2000/svg">
<g clip-path="url(#clip0_664_8385)">
<path d="M50.9999 58.2856C61.0594 58.2856 69.2142 50.1308 69.2142 40.0713C69.2142 30.0119 61.0594 21.8571 50.9999 21.8571C40.9405 21.8571 32.7856 30.0119 32.7856 40.0713C32.7856 50.1308 40.9405 58.2856 50.9999 58.2856Z" stroke="black" stroke-width="8.5" stroke-linecap="round" stroke-linejoin="round"/>
<path d="M19.8899 86.6999C23.1411 81.3632 27.7105 76.9524 33.1587 73.8924C38.607 70.8315 44.7509 69.224 50.9999 69.224C57.2489 69.224 63.3928 70.8315 68.8411 73.8924C74.2896 76.9524 78.8584 81.3632 82.11 86.6999" stroke="black" stroke-width="8.5" stroke-linecap="round" stroke-linejoin="round"/>
<path d="M51 98.3571C77.1549 98.3571 98.3571 77.1549 98.3571 51C98.3571 24.8453 77.1549 3.64282 51 3.64282C24.8453 3.64282 3.64282 24.8453 3.64282 51C3.64282 77.1549 24.8453 98.3571 51 98.3571Z" stroke="black" stroke-width="8.5" stroke-linecap="round" stroke-linejoin="round"/>
</g>
<defs>
<clipPath id="clip0_664_8385">
<rect width="102" height="102" fill="white"/>
</clipPath>
</defs>
</svg>
